<svg width="32" height="32" viewBox="0 0 32 32" fill="none" xmlns="http://www.w3.org/2000/svg">
<path d="M30 25.9999H28V14.4437C28 14.1669 27.9426 13.8931 27.8314 13.6396C27.7201 13.3862 27.5575 13.1586 27.3538 12.9712L17.3538 3.5362C17.3489 3.53193 17.3443 3.52734 17.34 3.52245C16.9718 3.18762 16.492 3.00208 15.9944 3.00208C15.4967 3.00208 15.0169 3.18762 14.6488 3.52245L14.635 3.5362L4.64625 12.9712C4.4425 13.1586 4.27985 13.3862 4.16861 13.6396C4.05737 13.8931 3.99996 14.1669 4 14.4437V25.9999H2C1.73478 25.9999 1.48043 26.1053 1.29289 26.2928C1.10536 26.4804 1 26.7347 1 26.9999C1 27.2652 1.10536 27.5195 1.29289 27.7071C1.48043 27.8946 1.73478 27.9999 2 27.9999H30C30.2652 27.9999 30.5196 27.8946 30.7071 27.7071C30.8946 27.5195 31 27.2652 31 26.9999C31 26.7347 30.8946 26.4804 30.7071 26.2928C30.5196 26.1053 30.2652 25.9999 30 25.9999ZM19 25.9999H13V19.9999C13 19.7347 13.1054 19.4804 13.2929 19.2928C13.4804 19.1053 13.7348 18.9999 14 18.9999H18C18.2652 18.9999 18.5196 19.1053 18.7071 19.2928C18.8946 19.4804 19 19.7347 19 19.9999V25.9999Z" fill="black"/>
</svg>
