<svg width="32" height="32" viewBox="0 0 32 32" fill="none" xmlns="http://www.w3.org/2000/svg">
<path d="M28 8.00006C27.9996 7.25201 27.7895 6.51906 27.3935 5.88444C26.9975 5.24982 26.4314 4.73897 25.7596 4.4099C25.0878 4.08083 24.3372 3.94673 23.5931 4.02283C22.8489 4.09893 22.141 4.38218 21.5497 4.84042C20.9585 5.29865 20.5075 5.9135 20.2482 6.61515C19.9888 7.31679 19.9314 8.0771 20.0824 8.80975C20.2334 9.54239 20.5869 10.218 21.1026 10.7598C21.6184 11.3017 22.2757 11.688 23 11.8751V13.0001C23 13.5305 22.7893 14.0392 22.4142 14.4143C22.0391 14.7893 21.5304 15.0001 21 15.0001H12C11.2974 14.9992 10.6071 15.1851 10 15.5388V11.8751C10.9427 11.6317 11.7642 11.0528 12.3106 10.2471C12.857 9.44127 13.0908 8.46387 12.9681 7.49806C12.8455 6.53225 12.3747 5.64433 11.6442 5.00074C10.9137 4.35715 9.97358 4.00208 9.00001 4.00208C8.02644 4.00208 7.08628 4.35715 6.35578 5.00074C5.62527 5.64433 5.15457 6.53225 5.03189 7.49806C4.90922 8.46387 5.143 9.44127 5.68941 10.2471C6.23582 11.0528 7.05735 11.6317 8.00001 11.8751V20.1251C7.05735 20.3685 6.23582 20.9473 5.68941 21.7531C5.143 22.5588 4.90922 23.5362 5.03189 24.5021C5.15457 25.4679 5.62527 26.3558 6.35578 26.9994C7.08628 27.643 8.02644 27.998 9.00001 27.998C9.97358 27.998 10.9137 27.643 11.6442 26.9994C12.3747 26.3558 12.8455 25.4679 12.9681 24.5021C13.0908 23.5362 12.857 22.5588 12.3106 21.7531C11.7642 20.9473 10.9427 20.3685 10 20.1251V19.0001C10 18.4696 10.2107 17.9609 10.5858 17.5858C10.9609 17.2108 11.4696 17.0001 12 17.0001H21C22.0609 17.0001 23.0783 16.5786 23.8284 15.8285C24.5786 15.0783 25 14.0609 25 13.0001V11.8751C25.8583 11.6521 26.6185 11.1508 27.1613 10.4496C27.7042 9.74834 27.9992 8.88686 28 8.00006ZM7.00001 8.00006C7.00001 7.6045 7.11731 7.21782 7.33707 6.88892C7.55683 6.56002 7.86919 6.30368 8.23464 6.1523C8.6001 6.00093 9.00223 5.96132 9.39019 6.03849C9.77815 6.11566 10.1345 6.30614 10.4142 6.58585C10.6939 6.86555 10.8844 7.22192 10.9616 7.60988C11.0388 7.99784 10.9991 8.39997 10.8478 8.76543C10.6964 9.13088 10.44 9.44324 10.1111 9.663C9.78225 9.88276 9.39557 10.0001 9.00001 10.0001C8.46958 10.0001 7.96087 9.78935 7.5858 9.41427C7.21072 9.0392 7.00001 8.53049 7.00001 8.00006ZM11 24.0001C11 24.3956 10.8827 24.7823 10.6629 25.1112C10.4432 25.4401 10.1308 25.6964 9.76538 25.8478C9.39992 25.9992 8.99779 26.0388 8.60983 25.9616C8.22187 25.8845 7.8655 25.694 7.5858 25.4143C7.30609 25.1346 7.11561 24.7782 7.03844 24.3902C6.96127 24.0023 7.00088 23.6001 7.15225 23.2347C7.30363 22.8692 7.55997 22.5569 7.88887 22.3371C8.21777 22.1174 8.60445 22.0001 9.00001 22.0001C9.53044 22.0001 10.0391 22.2108 10.4142 22.5858C10.7893 22.9609 11 23.4696 11 24.0001ZM24 10.0001C23.6044 10.0001 23.2178 9.88276 22.8889 9.663C22.56 9.44324 22.3036 9.13088 22.1523 8.76543C22.0009 8.39997 21.9613 7.99784 22.0384 7.60988C22.1156 7.22192 22.3061 6.86555 22.5858 6.58585C22.8655 6.30614 23.2219 6.11566 23.6098 6.03849C23.9978 5.96132 24.3999 6.00093 24.7654 6.1523C25.1308 6.30368 25.4432 6.56002 25.6629 6.88892C25.8827 7.21782 26 7.6045 26 8.00006C26 8.53049 25.7893 9.0392 25.4142 9.41427C25.0391 9.78935 24.5304 10.0001 24 10.0001Z" fill="black"/>
</svg>
