<svg width="32" height="32" viewBox="0 0 32 32" fill="none" xmlns="http://www.w3.org/2000/svg">
<path d="M28.345 8.62495C28.2843 8.47502 28.1882 8.34204 28.0649 8.23742C27.9415 8.1328 27.7947 8.05965 27.6369 8.02425C27.479 7.98886 27.315 7.99227 27.1588 8.03419C27.0026 8.07611 26.8589 8.15529 26.74 8.26495L21.7025 12.9137L19.5487 12.4512L19.0862 10.2974L23.735 5.25995C23.8447 5.14106 23.9238 4.99736 23.9658 4.84115C24.0077 4.68494 24.0111 4.5209 23.9757 4.36309C23.9403 4.20527 23.8671 4.0584 23.7625 3.93506C23.6579 3.81173 23.5249 3.71561 23.375 3.65495C22.0087 3.10224 20.5275 2.89355 19.0616 3.04722C17.5958 3.20089 16.1901 3.71221 14.9681 4.53626C13.7461 5.36031 12.7452 6.47187 12.0533 7.77326C11.3614 9.07466 10.9997 10.5261 11 11.9999C10.9984 13.2445 11.2537 14.4761 11.75 15.6174L4.22375 22.1249C4.205 22.1399 4.1875 22.1574 4.17 22.1737C3.41977 22.9239 2.99829 23.9415 2.99829 25.0024C2.99829 25.5278 3.10177 26.048 3.30281 26.5334C3.50385 27.0187 3.79852 27.4597 4.17 27.8312C4.54147 28.2027 4.98248 28.4973 5.46784 28.6984C5.9532 28.8994 6.4734 29.0029 6.99875 29.0029C8.05973 29.0029 9.07727 28.5814 9.8275 27.8312C9.84375 27.8149 9.86125 27.7962 9.87625 27.7787L16.3825 20.2499C17.753 20.8516 19.252 21.1019 20.7436 20.9782C22.2353 20.8545 23.6725 20.3608 24.9253 19.5417C26.178 18.7226 27.2067 17.6039 27.9182 16.2871C28.6297 14.9702 29.0015 13.4967 29 11.9999C29.0019 10.8432 28.7795 9.69701 28.345 8.62495ZM20 18.9999C18.8163 18.9983 17.6523 18.6973 16.6162 18.1249C16.4155 18.0141 16.1828 17.9755 15.957 18.0158C15.7313 18.0561 15.5262 18.1727 15.3762 18.3462L8.38875 26.4387C8.01062 26.7979 7.50712 26.9953 6.9856 26.9886C6.46408 26.9819 5.96579 26.7718 5.59699 26.403C5.22819 26.0342 5.01805 25.5359 5.01137 25.0143C5.00469 24.4928 5.20201 23.9893 5.56125 23.6112L13.6475 16.6249C13.8213 16.4749 13.9381 16.2696 13.9784 16.0436C14.0187 15.8176 13.98 15.5846 13.8687 15.3837C13.2313 14.2307 12.9321 12.9213 13.0057 11.6059C13.0792 10.2905 13.5224 9.0226 14.2844 7.94789C15.0464 6.87318 16.0963 6.03532 17.3132 5.53063C18.5301 5.02595 19.8648 4.87494 21.1637 5.09495L17.2637 9.3212C17.1552 9.43891 17.0766 9.58096 17.0344 9.7354C16.9922 9.88984 16.9877 10.0522 17.0212 10.2087L17.7287 13.4999C17.7692 13.6882 17.8632 13.8607 17.9993 13.9969C18.1355 14.133 18.308 14.227 18.4962 14.2674L21.79 14.9749C21.9465 15.0085 22.1089 15.004 22.2633 14.9618C22.4177 14.9196 22.5598 14.841 22.6775 14.7324L26.9037 10.8324C27.0722 11.8362 27.02 12.8646 26.7508 13.8462C26.4816 14.8277 26.0017 15.7388 25.3447 16.5161C24.6876 17.2935 23.8692 17.9183 22.9462 18.3472C22.0232 18.7762 21.0178 18.9989 20 18.9999Z" fill="black"/>
</svg>
