<svg width="32" height="32" viewBox="0 0 32 32" fill="none" xmlns="http://www.w3.org/2000/svg">
<path d="M27 14V26C27 26.5304 26.7893 27.0391 26.4142 27.4142C26.0391 27.7893 25.5304 28 25 28H7C6.46957 28 5.96086 27.7893 5.58579 27.4142C5.21071 27.0391 5 26.5304 5 26V14C5 13.4696 5.21071 12.9609 5.58579 12.5858C5.96086 12.2107 6.46957 12 7 12H10C10.2652 12 10.5196 12.1054 10.7071 12.2929C10.8946 12.4804 11 12.7348 11 13C11 13.2652 10.8946 13.5196 10.7071 13.7071C10.5196 13.8946 10.2652 14 10 14H7V26H25V14H22C21.7348 14 21.4804 13.8946 21.2929 13.7071C21.1054 13.5196 21 13.2652 21 13C21 12.7348 21.1054 12.4804 21.2929 12.2929C21.4804 12.1054 21.7348 12 22 12H25C25.5304 12 26.0391 12.2107 26.4142 12.5858C26.7893 12.9609 27 13.4696 27 14ZM11.7075 8.70749L15 5.41374V17C15 17.2652 15.1054 17.5196 15.2929 17.7071C15.4804 17.8946 15.7348 18 16 18C16.2652 18 16.5196 17.8946 16.7071 17.7071C16.8946 17.5196 17 17.2652 17 17V5.41374L20.2925 8.70749C20.4801 8.89513 20.7346 9.00055 21 9.00055C21.2654 9.00055 21.5199 8.89513 21.7075 8.70749C21.8951 8.51985 22.0006 8.26536 22.0006 7.99999C22.0006 7.73463 21.8951 7.48013 21.7075 7.29249L16.7075 2.29249C16.6146 2.19952 16.5043 2.12576 16.3829 2.07543C16.2615 2.02511 16.1314 1.99921 16 1.99921C15.8686 1.99921 15.7385 2.02511 15.6171 2.07543C15.4957 2.12576 15.3854 2.19952 15.2925 2.29249L10.2925 7.29249C10.1049 7.48013 9.99944 7.73463 9.99944 7.99999C9.99944 8.26536 10.1049 8.51985 10.2925 8.70749C10.4801 8.89513 10.7346 9.00055 11 9.00055C11.2654 9.00055 11.5199 8.89513 11.7075 8.70749Z" fill="black"/>
</svg>
